<svg width="28" height="21" viewBox="0 0 28 21" fill="none" xmlns="http://www.w3.org/2000/svg">
<path fill-rule="evenodd" clip-rule="evenodd" d="M9.25391 3.06439C9.25391 2.84528 9.3514 2.63514 9.52492 2.48021C9.69845 2.32528 9.9338 2.23824 10.1792 2.23824H24.9839C25.2293 2.23824 25.4647 2.32528 25.6382 2.48021C25.8117 2.63514 25.9092 2.84528 25.9092 3.06439V17.9351C25.9092 18.1542 25.8117 18.3643 25.6382 18.5193C25.4647 18.6742 25.2293 18.7612 24.9839 18.7612H10.1792C9.9338 18.7612 9.69845 18.6742 9.52492 18.5193C9.3514 18.3643 9.25391 18.1542 9.25391 17.9351V14.6305C9.25391 14.4114 9.15642 14.2012 8.9829 14.0463C8.80937 13.8914 8.57402 13.8043 8.32861 13.8043C8.08321 13.8043 7.84786 13.8914 7.67433 14.0463C7.50081 14.2012 7.40332 14.4114 7.40332 14.6305V17.9351C7.40332 18.5924 7.69578 19.2228 8.21636 19.6876C8.73694 20.1524 9.44299 20.4135 10.1792 20.4135H24.9839C25.7201 20.4135 26.4262 20.1524 26.9468 19.6876C27.4673 19.2228 27.7598 18.5924 27.7598 17.9351V3.06439C27.7598 2.40706 27.4673 1.77666 26.9468 1.31186C26.4262 0.847059 25.7201 0.585938 24.9839 0.585938H10.1792C9.44299 0.585938 8.73694 0.847059 8.21636 1.31186C7.69578 1.77666 7.40332 2.40706 7.40332 3.06439V6.36898C7.40332 6.58809 7.50081 6.79823 7.67433 6.95316C7.84786 7.10809 8.08321 7.19513 8.32861 7.19513C8.57402 7.19513 8.80937 7.10809 8.9829 6.95316C9.15642 6.79823 9.25391 6.58809 9.25391 6.36898V3.06439Z" fill="#F4F8F4"/>
<path fill-rule="evenodd" clip-rule="evenodd" d="M20.0864 11.0856C20.1726 11.0088 20.2409 10.9177 20.2876 10.8173C20.3342 10.7169 20.3582 10.6093 20.3582 10.5007C20.3582 10.392 20.3342 10.2844 20.2876 10.184C20.2409 10.0837 20.1726 9.99249 20.0864 9.91575L14.5346 4.95883C14.4486 4.88202 14.3464 4.82109 14.234 4.77952C14.1216 4.73795 14.0011 4.71655 13.8795 4.71655C13.7578 4.71655 13.6373 4.73795 13.5249 4.77952C13.4125 4.82109 13.3104 4.88202 13.2244 4.95883C13.1383 5.03565 13.0701 5.12683 13.0235 5.22719C12.977 5.32755 12.953 5.43512 12.953 5.54375C12.953 5.65238 12.977 5.75994 13.0235 5.8603C13.0701 5.96066 13.1383 6.05185 13.2244 6.12867L17.1976 9.67451H0.925299C0.679894 9.67451 0.444541 9.76155 0.271014 9.91649C0.0974865 10.0714 0 10.2816 0 10.5007C0 10.7198 0.0974865 10.9299 0.271014 11.0848C0.444541 11.2398 0.679894 11.3268 0.925299 11.3268H17.1976L13.2244 14.8727C13.1383 14.9495 13.0701 15.0407 13.0235 15.141C12.977 15.2414 12.953 15.349 12.953 15.4576C12.953 15.5662 12.977 15.6738 13.0235 15.7741C13.0701 15.8745 13.1383 15.9657 13.2244 16.0425C13.3104 16.1193 13.4125 16.1802 13.5249 16.2218C13.6373 16.2634 13.7578 16.2848 13.8795 16.2848C14.0011 16.2848 14.1216 16.2634 14.234 16.2218C14.3464 16.1802 14.4486 16.1193 14.5346 16.0425L20.0864 11.0856Z" fill="#F4F8F4"/>
</svg>
