<svg width="27" height="25" viewBox="0 0 27 25" fill="none" xmlns="http://www.w3.org/2000/svg">
<path d="M0.761719 0.833333C0.761719 0.61232 0.852545 0.400358 1.01422 0.244078C1.17589 0.0877973 1.39517 0 1.62381 0H4.21006C4.40236 5.13525e-05 4.58912 0.0622511 4.74065 0.176708C4.89217 0.291165 4.99975 0.451307 5.04629 0.631667L5.74458 3.33333H25.7622C25.8897 3.33341 26.0156 3.36082 26.1308 3.41359C26.246 3.46636 26.3477 3.54317 26.4285 3.6385C26.5093 3.73383 26.5673 3.84529 26.5981 3.96487C26.629 4.08444 26.6321 4.20915 26.6071 4.33L24.8829 12.6633C24.8452 12.8451 24.7459 13.0094 24.6007 13.1305C24.4555 13.2515 24.2726 13.3223 24.0812 13.3317L7.8791 14.1183L8.37394 16.6667H23.176C23.4046 16.6667 23.6239 16.7545 23.7856 16.9107C23.9472 17.067 24.038 17.279 24.038 17.5C24.038 17.721 23.9472 17.933 23.7856 18.0893C23.6239 18.2455 23.4046 18.3333 23.176 18.3333H7.65841C7.45743 18.3332 7.26282 18.2651 7.10824 18.1409C6.95366 18.0168 6.84882 17.8443 6.81184 17.6533L4.22731 4.345L3.53764 1.66667H1.62381C1.39517 1.66667 1.17589 1.57887 1.01422 1.42259C0.852545 1.26631 0.761719 1.05435 0.761719 0.833333ZM6.1101 5L7.55841 12.465L23.3242 11.7L24.7105 5H6.1101ZM9.38258 18.3333C8.46802 18.3333 7.59092 18.6845 6.94423 19.3096C6.29754 19.9348 5.93424 20.7826 5.93424 21.6667C5.93424 22.5507 6.29754 23.3986 6.94423 24.0237C7.59092 24.6488 8.46802 25 9.38258 25C10.2971 25 11.1742 24.6488 11.8209 24.0237C12.4676 23.3986 12.8309 22.5507 12.8309 21.6667C12.8309 20.7826 12.4676 19.9348 11.8209 19.3096C11.1742 18.6845 10.2971 18.3333 9.38258 18.3333ZM21.4518 18.3333C20.5372 18.3333 19.6601 18.6845 19.0134 19.3096C18.3668 19.9348 18.0034 20.7826 18.0034 21.6667C18.0034 22.5507 18.3668 23.3986 19.0134 24.0237C19.6601 24.6488 20.5372 25 21.4518 25C22.3663 25 23.2434 24.6488 23.8901 24.0237C24.5368 23.3986 24.9001 22.5507 24.9001 21.6667C24.9001 20.7826 24.5368 19.9348 23.8901 19.3096C23.2434 18.6845 22.3663 18.3333 21.4518 18.3333ZM9.38258 20C9.83986 20 10.2784 20.1756 10.6018 20.4882C10.9251 20.8007 11.1068 21.2246 11.1068 21.6667C11.1068 22.1087 10.9251 22.5326 10.6018 22.8452C10.2784 23.1577 9.83986 23.3333 9.38258 23.3333C8.9253 23.3333 8.48675 23.1577 8.16341 22.8452C7.84006 22.5326 7.65841 22.1087 7.65841 21.6667C7.65841 21.2246 7.84006 20.8007 8.16341 20.4882C8.48675 20.1756 8.9253 20 9.38258 20ZM21.4518 20C21.9091 20 22.3476 20.1756 22.671 20.4882C22.9943 20.8007 23.176 21.2246 23.176 21.6667C23.176 22.1087 22.9943 22.5326 22.671 22.8452C22.3476 23.1577 21.9091 23.3333 21.4518 23.3333C20.9945 23.3333 20.556 23.1577 20.2326 22.8452C19.9093 22.5326 19.7276 22.1087 19.7276 21.6667C19.7276 21.2246 19.9093 20.8007 20.2326 20.4882C20.556 20.1756 20.9945 20 21.4518 20Z" fill="#F4F8F4"/>
</svg>
