<svg width="26" height="25" viewBox="0 0 26 25" fill="none" xmlns="http://www.w3.org/2000/svg">
<path d="M0 0.833333C0 0.61232 0.0908267 0.400358 0.252499 0.244078C0.414172 0.0877973 0.633447 0 0.862086 0H3.44835C3.64064 5.13525e-05 3.8274 0.0622511 3.97893 0.176708C4.13045 0.291165 4.23803 0.451307 4.28457 0.631667L4.98286 3.33333H25.0005C25.128 3.33341 25.2539 3.36082 25.3691 3.41359C25.4843 3.46636 25.586 3.54317 25.6668 3.6385C25.7476 3.73383 25.8055 3.84529 25.8364 3.96487C25.8673 4.08444 25.8703 4.20915 25.8453 4.33L24.1212 12.6633C24.0835 12.8451 23.9841 13.0094 23.8389 13.1305C23.6937 13.2515 23.5109 13.3223 23.3194 13.3317L7.11738 14.1183L7.61222 16.6667H22.4142C22.6429 16.6667 22.8622 16.7545 23.0238 16.9107C23.1855 17.067 23.2763 17.279 23.2763 17.5C23.2763 17.721 23.1855 17.933 23.0238 18.0893C22.8622 18.2455 22.6429 18.3333 22.4142 18.3333H6.89669C6.69571 18.3332 6.50111 18.2651 6.34653 18.1409C6.19195 18.0168 6.0871 17.8443 6.05012 17.6533L3.46559 4.345L2.77592 1.66667H0.862086C0.633447 1.66667 0.414172 1.57887 0.252499 1.42259C0.0908267 1.26631 0 1.05435 0 0.833333ZM5.34838 5L6.79669 12.465L22.5625 11.7L23.9488 5H5.34838ZM8.62086 18.3333C7.7063 18.3333 6.8292 18.6845 6.18251 19.3096C5.53582 19.9348 5.17252 20.7826 5.17252 21.6667C5.17252 22.5507 5.53582 23.3986 6.18251 24.0237C6.8292 24.6488 7.7063 25 8.62086 25C9.53542 25 10.4125 24.6488 11.0592 24.0237C11.7059 23.3986 12.0692 22.5507 12.0692 21.6667C12.0692 20.7826 11.7059 19.9348 11.0592 19.3096C10.4125 18.6845 9.53542 18.3333 8.62086 18.3333ZM20.6901 18.3333C19.7755 18.3333 18.8984 18.6845 18.2517 19.3096C17.605 19.9348 17.2417 20.7826 17.2417 21.6667C17.2417 22.5507 17.605 23.3986 18.2517 24.0237C18.8984 24.6488 19.7755 25 20.6901 25C21.6046 25 22.4817 24.6488 23.1284 24.0237C23.7751 23.3986 24.1384 22.5507 24.1384 21.6667C24.1384 20.7826 23.7751 19.9348 23.1284 19.3096C22.4817 18.6845 21.6046 18.3333 20.6901 18.3333ZM8.62086 20C9.07814 20 9.51669 20.1756 9.84004 20.4882C10.1634 20.8007 10.345 21.2246 10.345 21.6667C10.345 22.1087 10.1634 22.5326 9.84004 22.8452C9.51669 23.1577 9.07814 23.3333 8.62086 23.3333C8.16358 23.3333 7.72503 23.1577 7.40169 22.8452C7.07834 22.5326 6.89669 22.1087 6.89669 21.6667C6.89669 21.2246 7.07834 20.8007 7.40169 20.4882C7.72503 20.1756 8.16358 20 8.62086 20ZM20.6901 20C21.1473 20 21.5859 20.1756 21.9092 20.4882C22.2326 20.8007 22.4142 21.2246 22.4142 21.6667C22.4142 22.1087 22.2326 22.5326 21.9092 22.8452C21.5859 23.1577 21.1473 23.3333 20.6901 23.3333C20.2328 23.3333 19.7942 23.1577 19.4709 22.8452C19.1476 22.5326 18.9659 22.1087 18.9659 21.6667C18.9659 21.2246 19.1476 20.8007 19.4709 20.4882C19.7942 20.1756 20.2328 20 20.6901 20Z" fill="#0B1108"/>
</svg>
