<svg width="13" height="12" viewBox="0 0 13 12" fill="none" xmlns="http://www.w3.org/2000/svg">
<path d="M4.53756 11.9007L0.0810966 6.44113C0.0553954 6.40965 0.0349997 6.37221 0.0210822 6.33098C0.00716471 6.28975 0 6.24554 0 6.20088C0 6.15623 0.00716471 6.11201 0.0210822 6.07078C0.0349997 6.02955 0.0553954 5.99212 0.0810966 5.96063L1.20615 4.57303C1.31366 4.44059 1.48741 4.44059 1.59492 4.57303L4.52881 8.16601C4.63632 8.29845 4.81132 8.29691 4.91883 8.16447L11.4016 0.100683C11.5091 -0.0333031 11.6842 -0.0333031 11.7929 0.0991425L12.9192 1.48674C13.0267 1.61919 13.0267 1.83326 12.9205 1.9657L5.85762 10.7456L5.85887 10.7472L4.92758 11.9007C4.82007 12.0331 4.64507 12.0331 4.53756 11.9007Z" fill="#849587"/>
</svg>
