<svg width="10" height="11" viewBox="0 0 10 11" fill="none" xmlns="http://www.w3.org/2000/svg">
<path d="M9.81257 2.08898L7.98676 0.193584C7.86611 0.0696005 7.70284 0 7.53264 0C7.36245 0 7.19917 0.0696005 7.07852 0.193584L0.605766 6.86925L0.0147891 9.50353C-0.00559768 9.59983 -0.00489881 9.69962 0.0168345 9.7956C0.0385679 9.89158 0.0807868 9.98134 0.140407 10.0583C0.200027 10.1353 0.275543 10.1975 0.361437 10.2405C0.447331 10.2835 0.541433 10.3061 0.63687 10.3067C0.68134 10.3113 0.726149 10.3113 0.770618 10.3067L3.34915 9.69629L9.81257 3.02705C9.93261 2.90243 10 2.7338 10 2.55802C10 2.38223 9.93261 2.2136 9.81257 2.08898ZM3.0381 9.11803L0.621318 9.64167L1.17186 7.19372L6.01476 2.21106L7.88101 4.13859L3.0381 9.11803ZM8.2978 3.67277L6.43156 1.74524L7.51398 0.633702L9.34912 2.56123L8.2978 3.67277Z" fill="#C0CEC3"/>
</svg>
